<svg viewBox="0 0 2048 627" xmlns="http://www.w3.org/2000/svg">
<path transform="translate(229,124)" d="m0 0h259v263l-4 6-56 56h-2l-1 3-5 5h-2l-1 3-6 5-20 20h-263l-1-1v-264l9-10 84-84zm9 15-8 1-79 79v1l10 1h230v240l7-6 74-74v-242z" fill="#6118CB"/>
<path transform="translate(1456,174)" d="m0 0h85l13 4 10 7 7 8 5 11 3 16v224l-17 1h-42l-1-1-1-36v-52h-38v77l-1 11-20 1h-38l-2-1v-227l4-16 6-11 8-8 14-7zm29 40-5 2v96h37l1-1v-93l-2-3-3-1z" fill="#FDFDFD"/>
<path transform="translate(1223,178)" d="m0 0h118l8 2 12 6 9 9 7 14 2 11v54l-2 9-7 13-7 6-5 3 9 7 6 8 2 5 2 12v87l-1 20-18 1h-40l-2-6-1-99-1-3-11-1h-20l-1 108-28 1h-30l-1-1zm59 40v77h33l3-2v-72l-1-2-4-1z" fill="#FDFDFD"/>
<path transform="translate(707,174)" d="m0 0h82l10 3 11 6 7 7 6 12 3 11 1 10v220l-1 1-19 1h-39l-2-7-1-219-1-3-4-1h-28l-1 229-28 1h-31l-2-1v-224l4-18 6-11 5-6 11-7z" fill="#FDFDFD"/>
<path transform="translate(1065,174)" d="m0 0h82l13 4 9 6 7 7 6 12 2 7 1 11v33l-31 1h-21l-5-1-2-39h-36v188l1 4h35l2-48h57v42l-2 15-5 12-6 8-7 6-12 5-4 1-14 1h-62l-14-2-12-6-9-9-7-14-2-10v-195l4-13 5-9 5-6 10-7 7-3z" fill="#FDFDFD"/>
<path transform="translate(868,178)" d="m0 0h123v47l-1 1h-61v65h57l1 1v46l-1 1h-57v104l-1 1-24 1h-34l-2-1z" fill="#FDFDFD"/>
<path transform="translate(1625,178)" d="m0 0h123v47l-1 1h-61v65h57l1 1v37l-1 10h-57v104l-1 1-27 1h-32l-1-1z" fill="#FDFDFD"/>
<path transform="translate(1769,178)" d="m0 0h146l1 1v19l-1 28h-43v218l-32 1h-27l-1-1-1-36v-72l1-110h-43z" fill="#FDFDFD"/>
<path transform="translate(565,178)" d="m0 0h60v266l-34 1h-24l-3-2v-264z" fill="#FDFDFD"/>
</svg>
